<svg xmlns="http://www.w3.org/2000/svg" width="94" height="24" viewBox="0 0 94 24">
  <g fill="#FFF">
    <g transform="translate(39)">
      <path d="M9.52553191 18.2446602L7.04468085 18.2446602 7.04468085 9.90291262C7.04468085 9.29708738 6.92765957 9.0407767 6.13191489 9.0407767 5.33617021 9.0407767 4.37659574 9.27378641 3.48723404 9.66990291L3.48723404 18.2679612 1.00638298 18.2679612C.514893617 18.2679612.140425532 17.8718447.140425532 17.4058252L.140425532 1.07184466C.140425532.582524272.538297872.209708738 1.00638298.209708738L3.5106383.209708738 3.5106383 7.2 3.69787234 7.2C5.52340426 6.22135922 6.36595745 5.98834951 7.46595745 5.98834951 9.52553191 5.98834951 10.3914894 6.96699029 10.3914894 9.15728155L10.3914894 17.3825243C10.4148936 17.8485437 10.0170213 18.2446602 9.52553191 18.2446602zM30.6829787 18.2446602L30.6829787 17.3359223 30.4957447 17.3359223C29.1382979 18.2213592 28.3659574 18.431068 27.3829787 18.431068 24.7851064 18.431068 23.1468085 16.9864078 23.1468085 12.3029126 23.1468085 7.78252427 25.2297872 5.96504854 27.8276596 5.96504854 28.7638298 5.96504854 29.606383 6.10485437 30.4957447 6.54757282L30.4957447.209708738 32.9765957.209708738C33.4680851.209708738 33.8425532.605825243 33.8425532 1.07184466L33.8425532 17.3592233C33.8425532 17.8485437 33.4446809 18.2213592 32.9765957 18.2213592L30.6829787 18.2213592 30.6829787 18.2446602zM30.4957447 8.99417476C29.9106383 8.78446602 29.2553191 8.69126214 28.787234 8.69126214 27.5468085 8.69126214 26.7042553 9.13398058 26.7042553 12.3728155 26.7042553 14.9592233 27.2893617 15.6349515 28.4829787 15.6349515 29.0914894 15.6349515 29.6297872 15.4252427 30.4957447 14.8893204L30.4957447 8.99417476zM42.5723404 9.41359223C42.1978723 9.27378641 41.7297872 9.22718447 41.3319149 9.22718447 40.5595745 9.22718447 39.9744681 9.41359223 39.1085106 9.92621359L39.1085106 18.2446602 36.6276596 18.2446602C36.1361702 18.2446602 35.7617021 17.8485437 35.7617021 17.3825243L35.7617021 6.19805825 39.1085106 6.19805825 39.1085106 7.33980583 39.2957447 7.33980583C40.3957447 6.24466019 41.0042553 5.98834951 41.7531915 5.98834951 42.0808511 5.98834951 42.3851064 6.05825243 42.712766 6.15145631L42.5723404 9.41359223zM49.1723404 18.4543689C45.8489362 18.4543689 43.5553191 16.7067961 43.5553191 12.2330097 43.5553191 7.80582524 45.8489362 5.98834951 49.2425532 5.98834951 52.5191489 5.98834951 54.8595745 7.66601942 54.8595745 12.2330097 54.8595745 16.7067961 52.4723404 18.4543689 49.1723404 18.4543689zM49.2191489 8.64466019C47.7914894 8.64466019 47.112766 9.11067961 47.112766 12.2330097 47.112766 15.3320388 47.8148936 15.7980583 49.1723404 15.7980583 50.6 15.7980583 51.2787234 15.3320388 51.2787234 12.2330097 51.2787234 9.11067961 50.5765957 8.64466019 49.2191489 8.64466019zM18.8170213 18.2912621L22.8425532 6.19805825 19.4957447 6.19805825 17.1553191 13.2815534 14.7914894 6.19805825 11.4914894 6.19805825 15.493617 18.2912621 13.6680851 23.8135922C15.6574468 23.8135922 17.3893617 22.7184466 17.9276596 21.1106796L18.8170213 18.2912621z"/>
    </g>
    <path d="M13.214433 17.740458L2.18247423 17.740458 2.18247423 8.21374046 7.72835052 8.21374046 7.72835052 6.0610687 1.52474227 6.0610687C.732474227 6.0610687.074742268 6.71755725.074742268 7.54198473L.074742268 18.4122137C.074742268 19.221374.717525773 19.8931298 1.52474227 19.8931298L13.4984536 19.8931298 13.4984536 17.740458C13.378866 17.740458 13.3041237 17.740458 13.2443299 17.740458L13.214433 17.740458zM27.4453608.106870229L15.4716495.106870229 15.4716495 2.25954198C15.5912371 2.25954198 15.6659794 2.25954198 15.7257732 2.25954198L15.7556701 2.25954198 26.7876289 2.25954198 26.7876289 11.7862595 21.2417526 11.7862595 21.2417526 13.9389313 27.4453608 13.9389313C28.2376289 13.9389313 28.8953608 13.2824427 28.8953608 12.4580153L28.8953608 1.58778626C28.8953608.763358779 28.2376289.106870229 27.4453608.106870229z"/>
    <path d="M16.9963918,6.07633588 L12.6762887,6.07633588 L12.6762887,0.106870229 L12.0185567,0.106870229 C11.2262887,0.106870229 10.5685567,0.763358779 10.5685567,1.58778626 L10.5685567,12.4580153 C10.5685567,13.2671756 11.2113402,13.9389313 12.0185567,13.9389313 L12.6762887,13.9389313 L13.543299,13.9389313 L13.543299,11.7862595 L12.6762887,11.7862595 L12.6762887,8.22900763 L16.3386598,8.22900763 L16.3386598,19.9083969 L16.9963918,19.9083969 C17.7886598,19.9083969 18.4463918,19.2519084 18.4463918,18.4274809 L18.4463918,7.55725191 C18.4463918,6.73282443 17.8036082,6.07633588 16.9963918,6.07633588 Z"/>
  </g>
</svg>
